<svg width="46" height="35" viewBox="0 0 46 35" fill="none" xmlns="http://www.w3.org/2000/svg">
<path fill-rule="evenodd" clip-rule="evenodd" d="M27.6667 0.25C28.1097 0.25 28.5327 0.417817 28.8536 0.713992L29.0332 0.906784L37.84 11.9167H39.3333C42.7459 11.9167 45.5363 14.5806 45.7383 17.9424L45.75 18.3333V27.6667C45.75 28.5526 45.0916 29.2848 44.2375 29.4007L44 29.4167H40.8418C40.0801 32.1099 37.6038 34.0833 34.6667 34.0833C31.7295 34.0833 29.2533 32.1099 28.4915 29.4167H17.5085C16.7467 32.1099 14.2705 34.0833 11.3333 34.0833C8.39618 34.0833 5.91995 32.1099 5.1582 29.4167H2C1.11404 29.4167 0.381854 28.7583 0.265975 27.9041L0.25 27.6667V13.6667C0.25 13.5393 0.263611 13.4151 0.289458 13.2954L0.345106 13.0967L5.04183 1.35007C5.27806 0.759487 5.81275 0.349638 6.43123 0.265852L6.66667 0.25H27.6667ZM5.15821 25.9167H3.75V15.4167H39.3333L39.6315 15.4317C41.1023 15.5811 42.25 16.8232 42.25 18.3333V25.9167H40.8418C40.08 23.2234 37.6038 21.25 34.6667 21.25C31.7295 21.25 29.2533 23.2234 28.4915 25.9167H17.5085C16.7467 23.2234 14.2705 21.25 11.3333 21.25C8.39619 21.25 5.91996 23.2234 5.15821 25.9167ZM8.41667 27.6667C8.41667 29.2775 9.7225 30.5833 11.3333 30.5833C12.9442 30.5833 14.25 29.2775 14.25 27.6667C14.25 26.0558 12.9442 24.75 11.3333 24.75C9.7225 24.75 8.41667 26.0558 8.41667 27.6667ZM37.5833 27.6696C37.5833 27.6686 37.5833 27.6676 37.5833 27.6667C37.5833 26.0558 36.2775 24.75 34.6667 24.75C33.0558 24.75 31.75 26.0558 31.75 27.6667C31.75 29.2775 33.0558 30.5833 34.6667 30.5833C36.2765 30.5833 37.5818 29.2791 37.5833 27.6696ZM7.84966 3.75H21.25V11.9167H4.58299L7.84966 3.75ZM26.8267 3.75H24.75V11.9167H33.36L26.8267 3.75Z" fill="#212121"/>
</svg>
