<svg width="46" height="38" viewBox="0 0 46 38" fill="none" xmlns="http://www.w3.org/2000/svg">
<path fill-rule="evenodd" clip-rule="evenodd" d="M3.87649 6.48104C4.24105 5.28599 5.35234 4.41663 6.66667 4.41663H39.3333C40.6477 4.41663 41.759 5.28599 42.1235 6.48104L23 19.2301L3.87649 6.48104ZM0.250081 7.30124C0.249757 7.31991 0.249731 7.33857 0.250003 7.35722V30.6666C0.250003 34.2105 3.12284 37.0833 6.66667 37.0833H39.3333C42.8772 37.0833 45.75 34.2105 45.75 30.6666V7.35716M42.25 10.6032V30.6666C42.25 32.2775 40.9442 33.5833 39.3333 33.5833H6.66667C5.05584 33.5833 3.75 32.2775 3.75 30.6666V10.6032L22.0293 22.7894C22.6171 23.1813 23.3829 23.1813 23.9707 22.7894L42.25 10.6032ZM45.7499 7.30131C45.7327 3.7722 42.8665 0.916626 39.3333 0.916626H6.66667C3.13353 0.916626 0.267341 3.77216 0.250081 7.30124" fill="#212121"/>
</svg>
