<svg width="47" height="47" viewBox="0 0 47 47" fill="none" xmlns="http://www.w3.org/2000/svg">
<path fill-rule="evenodd" clip-rule="evenodd" d="M41.5 8.25102C41.5 4.06286 38.1048 0.667683 33.9167 0.667683L33.4427 0.672462C29.3531 0.826788 25.7393 3.90194 23.4403 8.73946L23.4144 8.79235L23.1215 8.18917C20.7211 3.48895 17.0339 0.595685 12.8862 0.667949C8.72853 0.667683 5.33335 4.06286 5.33335 8.25102C5.33335 9.75418 5.7707 11.1552 6.52509 12.3337H4.75002C2.49486 12.3337 0.666687 14.1619 0.666687 16.4171V21.0837C0.666687 23.3389 2.49486 25.1671 4.75002 25.1671H5.33335V39.7504L5.34506 40.1413C5.54708 43.5031 8.33745 46.1671 11.75 46.1671H23.4167H35.0834L35.4742 46.1554C38.836 45.9534 41.5 43.163 41.5 39.7504V25.1671H42.0834C44.3385 25.1671 46.1667 23.3389 46.1667 21.0837V16.4171C46.1667 14.1619 44.3385 12.3337 42.0834 12.3337H40.3083C41.0627 11.1552 41.5 9.75418 41.5 8.25102ZM33.8703 15.8337C33.8857 15.8341 33.9012 15.8343 33.9167 15.8343C33.949 15.8343 33.9812 15.8341 34.0134 15.8337H42.0834C42.4055 15.8337 42.6667 16.0949 42.6667 16.4171V21.0837C42.6667 21.4059 42.4055 21.6671 42.0834 21.6671H39.75H25.1667V15.8337H33.8703ZM33.9877 12.3337C36.2101 12.2959 38 10.4825 38 8.25102C38 5.99585 36.1718 4.16768 33.8862 4.16742C30.6844 4.11163 27.5186 7.20323 25.7488 12.3337H33.9877ZM21.0845 12.3337C19.3143 7.20323 16.1454 4.11166 12.9167 4.16768C10.6615 4.16768 8.83335 5.99585 8.83335 8.25102C8.83335 10.3934 10.4833 12.1505 12.5818 12.3208L12.9017 12.3337H21.0845ZM12.82 15.8337C12.8522 15.8341 12.8844 15.8343 12.9167 15.8343C12.9322 15.8343 12.9477 15.8341 12.9631 15.8337H21.6667V21.6671H7.08335H4.75002C4.42785 21.6671 4.16669 21.4059 4.16669 21.0837V16.4171C4.16669 16.0949 4.42785 15.8337 4.75002 15.8337H12.82ZM8.83335 39.7504V25.1671H21.6667V42.6671H11.75L11.4518 42.652C9.98106 42.5027 8.83335 41.2606 8.83335 39.7504ZM35.0834 42.6671H25.1667V25.1671H38V39.7504L37.985 40.0486C37.8356 41.5194 36.5935 42.6671 35.0834 42.6671Z" fill="#212121"/>
</svg>
