<svg width="10" height="6" viewBox="0 0 10 6" fill="none" xmlns="http://www.w3.org/2000/svg">
<path d="M1.06246 2.41671C0.820835 2.41671 0.62496 2.61258 0.62496 2.85421C0.62496 3.0757 0.78955 3.25874 1.00309 3.28771L1.06246 3.29171H9.22913C9.47075 3.29171 9.66663 3.09583 9.66663 2.85421C9.66663 2.63272 9.50204 2.44967 9.28849 2.4207L9.22913 2.41671H1.06246Z" fill="#212121"/>
<path d="M9.53848 2.54485C9.38316 2.38953 9.14011 2.37541 8.96884 2.50249L8.91977 2.54485L6.58643 4.87818C6.41558 5.04904 6.41558 5.32605 6.58643 5.4969C6.74176 5.65222 6.98481 5.66634 7.15608 5.53926L7.20515 5.4969L9.53848 3.16357C9.70934 2.99271 9.70934 2.7157 9.53848 2.54485Z" fill="#212121"/>
<path d="M7.20515 0.211515C7.0343 0.0406604 6.75729 0.0406604 6.58643 0.211515C6.43111 0.366837 6.41699 0.609891 6.54407 0.781164L6.58643 0.830233L8.91977 3.16357C9.09062 3.33442 9.36763 3.33442 9.53848 3.16357C9.69381 3.00824 9.70793 2.76519 9.58085 2.59392L9.53848 2.54485L7.20515 0.211515Z" fill="#212121"/>
</svg>
