<svg width="19" height="20" viewBox="0 0 19 20" fill="none" xmlns="http://www.w3.org/2000/svg">
<path fill-rule="evenodd" clip-rule="evenodd" d="M3.2777 0.25C3.571 0.25 3.82561 0.440843 3.91266 0.713355L3.93529 0.807067L4.58259 4.69444H17.4999C17.8744 4.69444 18.1688 5.00062 18.1667 5.36361L18.1599 5.45539L17.271 11.6776L17.2399 11.8045C16.7672 13.1488 15.4959 14.0375 14.1172 14.033L13.9444 14.0278L7.75989 14.0267C6.33721 14.1074 5.02787 13.2757 4.48976 11.9701L4.42656 11.8045L4.39788 11.6929L3.39147 5.65444L3.37453 5.62061C3.35204 5.56744 3.33625 5.51074 3.32823 5.45157L3.32214 5.36111C3.32214 5.33043 3.32421 5.30023 3.32823 5.27065L2.71236 1.58333H1.49992C1.16241 1.58333 0.883482 1.33253 0.839338 1.00713L0.833252 0.916667C0.833252 0.579159 1.08406 0.30023 1.40946 0.256086L1.49992 0.25H3.2777ZM16.731 6.02778H4.80481L5.70081 11.4047L5.74184 11.5073C6.05525 12.2169 6.75476 12.682 7.55981 12.6974L7.72214 12.6944L13.9821 12.6955C14.819 12.743 15.5905 12.2642 15.9247 11.5073L15.9613 11.4127L16.731 6.02778ZM4.38881 17.3056C4.38881 15.9555 5.48322 14.8611 6.83325 14.8611C8.18328 14.8611 9.2777 15.9555 9.2777 17.3056C9.2777 18.6556 8.18328 19.75 6.83325 19.75C5.48322 19.75 4.38881 18.6556 4.38881 17.3056ZM7.94436 17.3056C7.94436 16.6919 7.4469 16.1944 6.83325 16.1944C6.2196 16.1944 5.72214 16.6919 5.72214 17.3056C5.72214 17.9192 6.2196 18.4167 6.83325 18.4167C7.4469 18.4167 7.94436 17.9192 7.94436 17.3056ZM11.4999 17.3056C11.4999 15.9555 12.5943 14.8611 13.9444 14.8611C15.2944 14.8611 16.3888 15.9555 16.3888 17.3056C16.3888 18.6556 15.2944 19.75 13.9444 19.75C12.5943 19.75 11.4999 18.6556 11.4999 17.3056ZM15.0555 17.3056C15.0555 16.6919 14.558 16.1944 13.9444 16.1944C13.3307 16.1944 12.8333 16.6919 12.8333 17.3056C12.8333 17.9192 13.3307 18.4167 13.9444 18.4167C14.558 18.4167 15.0555 17.9192 15.0555 17.3056Z" fill="white"/>
</svg>
